<?xml version="1.0" encoding="UTF-8" standalone="no"?>
<!-- Created with Inkscape (http://www.inkscape.org/) -->

<svg
   xmlns:dc="http://purl.org/dc/elements/1.1/"
   xmlns:cc="http://creativecommons.org/ns#"
   xmlns:rdf="http://www.w3.org/1999/02/22-rdf-syntax-ns#"
   xmlns:svg="http://www.w3.org/2000/svg"
   xmlns="http://www.w3.org/2000/svg"
   xmlns:sodipodi="http://sodipodi.sourceforge.net/DTD/sodipodi-0.dtd"
   xmlns:inkscape="http://www.inkscape.org/namespaces/inkscape"
   version="1.1"
   id="svg3910"
   xml:space="preserve"
   width="793.33331"
   height="1122.6667"
   viewBox="0 0 793.33331 1122.6667"
   sodipodi:docname="Platform.svg"
   inkscape:version="0.92.1 r15371"><metadata
     id="metadata3916"><rdf:RDF><cc:Work
         rdf:about=""><dc:format>image/svg+xml</dc:format><dc:type
           rdf:resource="http://purl.org/dc/dcmitype/StillImage" /><dc:title></dc:title></cc:Work></rdf:RDF></metadata><defs
     id="defs3914" /><sodipodi:namedview
     pagecolor="#ffffff"
     bordercolor="#666666"
     borderopacity="1"
     objecttolerance="10"
     gridtolerance="10"
     guidetolerance="10"
     inkscape:pageopacity="0"
     inkscape:pageshadow="2"
     inkscape:window-width="1366"
     inkscape:window-height="705"
     id="namedview3912"
     showgrid="false"
     inkscape:zoom="0.5945743"
     inkscape:cx="244.20028"
     inkscape:cy="1089.086"
     inkscape:window-x="-8"
     inkscape:window-y="-8"
     inkscape:window-maximized="1"
     inkscape:current-layer="g3918" /><g
     id="g3918"
     inkscape:groupmode="layer"
     inkscape:label="Platform"
     transform="matrix(1.3333333,0,0,-1.3333333,0,1122.6667)"><text
       transform="matrix(1,0,0,-1,281.492,665.392)"
       style="font-variant:normal;font-weight:normal;font-size:17.2154007px;font-family:CMR17;-inkscape-font-specification:CMR17;writing-mode:lr-tb;fill:#000000;fill-opacity:1;fill-rule:nonzero;stroke:none"
       id="text3922"><tspan
         x="0 14.63309 22.528072 28.624046 32.921009 39.917347"
         y="0"
         sodipodi:role="line"
         id="tspan3920">Marley</tspan></text>
<text
       transform="matrix(1,0,0,-1,133.768,613.172)"
       style="font-variant:normal;font-weight:normal;font-size:14.34619999px;font-family:CMBX12;-inkscape-font-specification:CMBX12;writing-mode:lr-tb;fill:#000000;fill-opacity:1;fill-rule:nonzero;stroke:none"
       id="text3926"><tspan
         x="0 24.209213 35.865501 44.831875 52.677811 57.160999 69.132904 77.202644 87.513252 98.106491 106.62383 115.5902 120.07339 129.03976 133.52295 139.79941 144.28261 152.35234 166.69855 179.06927 186.43317 195.39955 203.24548 209.52194 216.88585"
         y="0"
         sodipodi:role="line"
         id="tspan3924">1ChairofExhibitionDebates</tspan></text>
<text
       transform="matrix(1,0,0,-1,133.768,589.359)"
       style="font-variant:normal;font-weight:normal;font-size:11.9552002px;font-family:CMBX12;-inkscape-font-specification:CMBX12;writing-mode:lr-tb;fill:#000000;fill-opacity:1;fill-rule:nonzero;stroke:none"
       id="text3930"><tspan
         x="0 6.7248001 10.4608 30.635201 40.791142 48.633755 55.358555 62.830555 72.544151 85.301544"
         y="0"
         sodipodi:role="line"
         id="tspan3928">1.1AboutMe</tspan></text>
<text
       transform="matrix(1,0,0,-1,133.768,570.969)"
       style="font-variant:normal;font-weight:normal;font-size:9.96259975px;font-family:CMBX10;-inkscape-font-specification:CMBX10;writing-mode:lr-tb;fill:#000000;fill-opacity:1;fill-rule:nonzero;stroke:none"
       id="text3934"><tspan
         x="0 11.844535 18.209641 28.550819 34.119911 38.8382 48.702171 54.429668 60.158165 66.52327"
         y="0"
         sodipodi:role="line"
         id="tspan3932">Whoareyou?</tspan></text>
<text
       transform="matrix(1,0,0,-1,215.666,570.969)"
       style="font-variant:normal;font-weight:normal;font-size:9.96259975px;font-family:CMR10;-inkscape-font-specification:CMR10;writing-mode:lr-tb;fill:#000000;fill-opacity:1;fill-rule:nonzero;stroke:none"
       id="text3940"><tspan
         x="0 11.486877 15.416127 18.183737 26.206619 31.74184 34.509449 38.383904 43.365204 48.900425 53.327805 58.309105 63.844326 67.773575 70.541183 79.804413 84.231789 89.498024 93.372475 98.628746 104.16396 108.09322 110.86082 115.84212 119.77137 123.64583 126.41344 134.84578 139.82709 145.3623 154.91245 157.68007 162.10744 165.9819 171.51712 176.49841 180.40077 185.38206 188.14967 196.59198 201.01936 206.00067 208.76828 211.53589 215.96327 220.94456 229.37691 233.30615 237.18062 242.71584 248.25105 252.67844 257.93469"
         y="0"
         sodipodi:role="line"
         id="tspan3936">Asimultaneouslyenthusiasticandlethargiccollegestudent</tspan><tspan
         x="-81.898003 -74.703011 -71.935402 -68.060944 -59.208179 -54.226879 -45.364151 -39.82893 -34.293709 -28.758488 -23.510191 -20.74258 -15.207359 -6.898551 -1.3633304 3.6179695 7.5472193 11.476468 14.244079 19.225378 28.078146 31.122715 36.104015 43.323914 50.104458 55.362717 60.897938 63.66555 69.200768 71.968376 75.842834 78.610443 83.591743 92.444511 100.05494 104.48232 110.01754 114.99884 118.8733 123.30067"
         y="11.955"
         sodipodi:role="line"
         id="tspan3938">withanundyingpassionforExhibitionDebates</tspan></text>
<text
       transform="matrix(1,0,0,-1,342.901,562.629)"
       style="font-variant:normal;font-weight:normal;font-size:6.97380018px;font-family:CMR7;-inkscape-font-specification:CMR7;writing-mode:lr-tb;fill:#000000;fill-opacity:1;fill-rule:nonzero;stroke:none"
       id="text3944"><tspan
         x="0 5.6871338"
         y="0"
         sodipodi:role="line"
         id="tspan3942">TM</tspan></text>
<text
       transform="matrix(1,0,0,-1,133.768,533.677)"
       style="font-variant:normal;font-weight:normal;font-size:9.96259975px;font-family:CMBX10;-inkscape-font-specification:CMBX10;writing-mode:lr-tb;fill:#000000;fill-opacity:1;fill-rule:nonzero;stroke:none"
       id="text3948"><tspan
         x="0 8.9663401 14.376032 26.466642 35.695 42.060104 46.843147 57.02393 62.275215 68.321518 75.005424 80.256714 84.974998 88.157051 93.40834 99.773445 104.86533 113.9323 120.2974 129.84157 135.57903 141.30753 151.48831 157.85341 163.1037 168.83121 177.89816 181.08022 191.27097 197.63606 202.88736 209.25246 214.82155 219.27682 224.52811"
         y="0"
         sodipodi:role="line"
         id="tspan3946">Howmuchexperiencedoyouhaveindebate?</tspan></text>
<text
       transform="matrix(1,0,0,-1,373.666,533.677)"
       style="font-variant:normal;font-weight:normal;font-size:9.96259975px;font-family:CMR10;-inkscape-font-specification:CMR10;writing-mode:lr-tb;fill:#000000;fill-opacity:1;fill-rule:nonzero;stroke:none"
       id="text3952"><tspan
         x="0 6.368094 11.618384 19.927193 27.950075 33.485294 37.63372 43.168941"
         y="0"
         sodipodi:role="line"
         id="tspan3950">Toomuch.</tspan></text>
<text
       transform="matrix(1,0,0,-1,133.768,508.34)"
       style="font-variant:normal;font-weight:normal;font-size:9.96259975px;font-family:CMBX10;-inkscape-font-specification:CMBX10;writing-mode:lr-tb;fill:#000000;fill-opacity:1;fill-rule:nonzero;stroke:none"
       id="text3956"><tspan
         x="0 11.844535 18.209641 23.778734 33.205345 38.774441 43.492725 53.725311 59.452812 65.181305 71.54641 81.236038 86.48732 92.533623 99.217537 104.46882 109.18711 112.36916 117.62045 123.98555 129.07744 134.32872 143.81909 147.00114 158.34755 162.80283 169.16794 179.39056 190.26672 199.05275 207.86665"
         y="0"
         sodipodi:role="line"
         id="tspan3954">WhatareyourexperiencesintheMDU?</tspan></text>
<text
       transform="matrix(1,0,0,-1,357.008,508.34)"
       style="font-variant:normal;font-weight:normal;font-size:9.96259975px;font-family:CMR10;-inkscape-font-specification:CMR10;writing-mode:lr-tb;fill:#000000;fill-opacity:1;fill-rule:nonzero;stroke:none"
       id="text3968"><tspan
         x="0 7.9212632 14.8373 19.8186 28.081581 37.38665 44.581638 56.377357 59.421928 64.403229 72.629349 76.503799 82.039024 90.790169 99.922882 104.35027 112.16792 114.93552 117.70314"
         y="0"
         sodipodi:role="line"
         id="tspan3958">IwasaCAfortheMcGill</tspan><tspan
         x="-223.24001 -215.76805 -210.23283 -203.17632 -192.11186 -188.2374 -183.2561 -177.73085 -173.82849 -168.29327 -163.31197 -155.01013 -150.5728 -145.31653 -137.16812 -132.18681 -126.6516 -116.83246 -112.958 -107.9767 -102.44148 -98.539131 -93.003914 -88.022614 -79.720779 -75.293396 -70.037132 -61.878757 -56.343536 -53.575924 -49.673576 -45.246197 -40.818817 -36.944363 -31.96306 -23.786755 -20.742186 -15.760885 -7.5746164 -3.7001615 1.8350592 10.536394 20.775955 23.543564 28.809795 32.68425 37.111629 45.287937 52.344444 57.325745 62.860966 67.842262 73.377487 77.804863 82.786163 92.866325 100.33827 108.54148 111.58605 116.56735"
         y="11.955"
         sodipodi:role="line"
         id="tspan3960">HSBPtournamentandtournamentdirectorfortheWinterBonanza.Asfor</tspan><tspan
         x="-223.24001 -218.81262 -213.55437 -209.6799 -205.25253 -201.35017 -195.81496 -190.83365 -184.7485 -180.87404 -175.89275 -170.35753 -166.45517 -160.91995 -155.93864 -147.63681 -143.20944 -137.95317 -134.07872 -130.14946 -124.06431 -120.46681 -117.6992 -112.70994 -104.96501 -99.160797 -94.733421 -90.306038 -81.45327 -73.154427 -67.896164 -62.360947 -57.379646 -53.477295 -49.60284 -45.175461 -41.273109 -35.737892 -30.202669 -25.221371 -22.45376 -19.68615 -15.7569 -8.5648985 -3.5835989 3.608402 10.803391 15.230771 20.497002 24.371456 28.273808 33.255108 39.340263 46.812214 51.514561 56.77282 59.540432 63.967812 71.712738 76.694038 82.229256 91.082024 96.617241 102.15247 107.13377 109.90137 112.66898 116.59824"
         y="23.91"
         sodipodi:role="line"
         id="tspan3962">externaltournaments,I’vebeenaquarterfnalistatCentralNoviceandfnalist</tspan><tspan
         x="-223.24001 -218.2587 -211.27591 -203.45827 -197.92303 -195.15543 -189.62021 -184.08499 -179.10368 -173.56847 -166.43724 -159.73141 -154.75011 -151.9825 -148.05325 -139.96362 -133.04759 -128.62021 -123.35397 -116.37119 -112.49673 -104.4071 -97.762047 -92.780746 -90.013138 -85.585762 -79.669968 -72.474976 -66.939758 -64.17215 -60.01376 -51.370205 -46.388905 -37.745354 -34.977745 -31.103289 -24.065708 -19.353399 -12.158409 -3.5148571 -0.47028643 3.957093 6.7247033 13.70749 16.4751 19.24271 24.222017 31.767691 36.195072 41.730289 46.71159 52.246811 57.228111 65.871666 69.746117 74.727417 80.262642 84.164986 89.700211 94.681511 102.98335 107.41072 112.66699 116.54145"
         y="35.865002"
         sodipodi:role="line"
         id="tspan3964">atGuindon.IalsowenttoYale,whichonitsownfeltlikeenoughtournaments</tspan><tspan
         x="-223.24001 -219.36554 -211.0667 -208.29909 -203.31779 -199.38853 -192.18657 -183.88773 -181.12012 -178.35251 -175.30794 -170.88055 -167.0061 -164.23849 -155.93666 -151.50928"
         y="47.82"
         sodipodi:role="line"
         id="tspan3966">tolastalifetime.</tspan></text>
<text
       transform="matrix(1,0,0,-1,133.768,433.19)"
       style="font-variant:normal;font-weight:normal;font-size:11.9552002px;font-family:CMBX12;-inkscape-font-specification:CMBX12;writing-mode:lr-tb;fill:#000000;fill-opacity:1;fill-rule:nonzero;stroke:none"
       id="text3972"><tspan
         x="0 6.7248001 10.4608 30.635201 43.392593 49.930893 55.424309 59.160309 65.296913 76.877914 91.821915 100.85406 107.57887"
         y="0"
         sodipodi:role="line"
         id="tspan3970">1.2Marley&amp;You</tspan></text>
<text
       transform="matrix(1,0,0,-1,133.768,414.801)"
       style="font-variant:normal;font-weight:normal;font-size:9.96259975px;font-family:CMBX10;-inkscape-font-specification:CMBX10;writing-mode:lr-tb;fill:#000000;fill-opacity:1;fill-rule:nonzero;stroke:none"
       id="text3976"><tspan
         x="0 11.844535 17.890837 28.848701 34.417793 39.136082 49.308891 55.036392 60.764885 72.04155 76.759842 83.124947 89.490051 95.855156 99.037209 105.40231 116.04237 119.54323 125.27173 134.90158 139.35684 145.72195 148.90401 158.34457 165.02847 170.75697 175.276 178.45807 182.91333 186.0954 191.82388 198.189"
         y="0"
         sodipodi:role="line"
         id="tspan3974">Whyareyourunningforthisposition?</tspan></text>
<text
       transform="matrix(1,0,0,-1,347.328,414.801)"
       style="font-variant:normal;font-weight:normal;font-size:9.96259975px;font-family:CMR10;-inkscape-font-specification:CMR10;writing-mode:lr-tb;fill:#000000;fill-opacity:1;fill-rule:nonzero;stroke:none"
       id="text3988"><tspan
         x="0 3.5974948 6.3651052 16.17428 18.941891 21.709501 26.688808 35.390144 39.264599 48.519855 56.82169 61.80299 66.782295 75.483635 81.018852 85.446228 90.981453 95.962753 99.837204 108.53854 116.84038 121.82168 125.72403"
         y="0"
         sodipodi:role="line"
         id="tspan3978">I’dliketomakedebatemore</tspan><tspan
         x="-213.56 -208.5787 -204.15132 -199.72394 -195.29655 -191.36731 -187.43806 -184.67046 -179.13524 -176.36761 -167.26778 -164.22321 -159.24191 -150.67706 -144.86288 -140.43552 -135.45421 -129.91899 -127.15138 -118.06151 -113.08021 -107.54498 -103.67053 -99.74128 -96.973671 -91.438446 -82.348572 -77.367271 -69.650246 -64.668945 -59.133724 -50.568874 -47.801266 -39.499432 -31.197596 -26.770216 -21.234995 -18.467386 -13.486086 -9.6116304 -0.52175415 3.9056253 8.8869257 17.188761 25.221603 30.756824 36.292046 39.059654 42.655159 47.076561 58.312382 65.784332 74.376076 77.143684 85.690598 89.61985 93.494308 98.475609 104.01083 109.53609 113.4753 121.24413 125.17338"
         y="11.955"
         sodipodi:role="line"
         id="tspan3980">accessibleforpeopleoutsideofourimmediatecommunity.Asitstands,so</tspan><tspan
         x="-213.56 -205.53712 -200.00189 -195.84351 -186.21365 -181.23236 -174.09315 -168.55794 -164.13055 -158.59534 -153.61404 -149.73958 -141.21758 -138.44997 -130.42609 -127.65848 -122.40221 -118.52776 -114.10037 -110.19803 -104.6628 -99.681503 -96.913895 -91.932594 -88.058136 -82.522919 -74.000908 -71.233299 -66.251999 -60.716778 -55.735481 -50.20026 -45.21896 -40.237659 -35.81028 -28.748789 -24.874334 -19.339113 -10.817105 -6.8878555 -3.2923532 1.9659071 4.7335172 9.1608973 16.222387 20.096844 25.622101 34.154072 38.083321 42.5107 46.385155 50.259609 53.027222 58.562443 67.638367 74.833359 80.368584 84.795959 88.698311 97.220322 99.98793 107.95702 111.83147 116.81277 121.79208 126.21945"
         y="23.91"
         sodipodi:role="line"
         id="tspan3982">muchofdebateisinternal–thelanguage,thestyle,thesettingwhereittakes</tspan><tspan
         x="-213.56 -208.02478 -205.25717 -200.27586 -195.8485 -191.42111 -186.4398 -182.56535 -177.03014 -172.04883 -163.84065 -161.07304 -157.19858 -154.43097 -146.168 -141.17873 -136.75134 -132.849 -123.257 -117.72178 -114.95417 -106.65234 -102.22495 -96.689735 -93.922127 -85.713936 -82.669365 -77.688072 -69.451988 -63.916767 -59.489388 -52.573349 -48.145969 -43.164669 -34.862835 -30.435457 -26.533106 -18.260164 -14.385708 -5.0706773 -1.1683269 3.2590525 6.0266628 11.007963 14.882418 23.643528 27.517984 36.833015 41.814316 50.050396 55.031696 60.566917 66.102135 70.004486 74.43187 78.859245 81.626854 86.608154 90.482613 99.243721 106.44868 111.97393 116.95523 125.17338"
         y="35.865002"
         sodipodi:role="line"
         id="tspan3984">place–thatit’sverydifcultfornewcomerstorelatetoorappreciatewhata</tspan><tspan
         x="-213.56 -206.64397 -201.66266 -196.12744 -190.59222 -186.16484 -182.2625 -179.21793 -173.68269 -167.59755 -162.06232 -159.29471 -155.36546 -150.93808 -148.17047 -142.63525 -139.86765 -137.10004 -131.56482 -123.80993 -121.04231 -113.85031 -111.0827 -107.15346"
         y="47.820999"
         sodipodi:role="line"
         id="tspan3986">wonderfuldisciplineitis.</tspan></text>
<text
       transform="matrix(1,0,0,-1,133.768,341.644)"
       style="font-variant:normal;font-weight:normal;font-size:9.96259975px;font-family:CMBX10;-inkscape-font-specification:CMBX10;writing-mode:lr-tb;fill:#000000;fill-opacity:1;fill-rule:nonzero;stroke:none"
       id="text3992"><tspan
         x="0 11.844535 18.209641 23.778734 32.049683 40.005817 45.73431 52.099415 55.281471 65.472214 71.199715 76.928207 87.108986 90.291046 93.473099 99.2006 108.27752 112.7328 122.27697 125.45902 131.50533 135.9606 140.67888 146.72618 153.09129 159.45639 164.54828 173.61523 176.7973 186.98804 192.71555 198.44403 204.80914 213.34309 220.02701 225.75551 230.27454 233.45659 237.91187 241.09392 246.82242 253.18753"
         y="0"
         sodipodi:role="line"
         id="tspan3990">Whatwouldyouliketointroduceinyourposition?</tspan></text>
<text
       transform="matrix(1,0,0,-1,145.945,324.316)"
       style="font-variant:normal;font-weight:normal;font-size:9.96259975px;font-family:CMR10;-inkscape-font-specification:CMR10;writing-mode:lr-tb;fill:#000000;fill-opacity:1;fill-rule:nonzero;stroke:none"
       id="text4004"><tspan
         x="0 4.9812999 12.73021 20.47912 26.293293 30.720673 36.255894 39.576427 45.111649 50.361938 55.343239 62.573097 69.353645 77.102554 80.70005 87.946846 95.14183 100.67706 105.10443 109.00678 116.75171 120.62617 126.16138 133.91628 138.89757 144.4328 149.96802 152.73563 157.16301 162.69823 167.12561 174.87053 179.29791 184.27921 193.13197 197.56932 203.09457 208.08583 213.06714 218.04843 225.79337 231.32858 234.09619 237.99855 242.42592 246.8533 250.72775 253.49536 262.07117 269.26617 272.03378 275.90823 284.76099 290.2962 294.7236 300.25882 305.24011 309.11456 313.54196 317.44431"
         y="0"
         sodipodi:role="line"
         id="tspan3994">1.Open-foorPOIswheretheaudiencecanengagedirectlywithdebaters</tspan><tspan
         x="0 4.9812999 12.73021 19.9252 23.827551 28.529898 35.724888 41.260109 44.580643 48.509892 53.491192 59.026413 62.928764 67.35614 71.783524 80.646248 86.181473 90.608849 96.144073 101.12537 104.99982 112.74475 116.6471 121.07448 125.00373 129.98503 132.75264 138.28786 142.16232 144.92993 149.91122 155.44644 162.69324 166.5677 174.87651 183.17834 188.15964 190.92725 196.18352 200.05797 205.03928 207.80688 216.65965 220.5341 225.51541 231.05063 233.81824 241.56316 246.54446 250.97185 255.39922 259.8266 263.76581 267.69507 270.46268 275.99789 278.75555 281.52316 284.29077 287.89624"
         y="18.627001"
         sodipodi:role="line"
         id="tspan3996">2.Crowd-sourceddebateresolutionstomaintaintopicaccessibility</tspan><tspan
         x="0 4.9812999 12.73021 18.956835 23.384214 27.313463 34.560261 38.48951 42.926849 46.829201 49.586849 54.56815 60.103371 67.36013 72.895348 77.322731 82.857948 87.839249 91.713699 99.458626 103.33308 108.31438 113.8496 116.61722 121.04459 128.30135 132.72873 137.70804 142.13542 146.03777 154.61357 159.59488 165.1301 169.55748 177.3024 180.07001 188.93274 197.23158 204.42657 209.96179 212.7294 215.49701"
         y="37.254002"
         sodipodi:role="line"
         id="tspan3998">3.Lessseriousdebatetopicseveryonceinawhile</tspan><tspan
         x="0 4.9812999 12.73021 23.778734 30.413826 35.395126 40.930347 44.804802 50.340023 56.154194 64.15815 68.306572 73.841797 78.823097 84.358315 89.893539 94.320915 100.6651 104.53955 113.09743 115.86504 124.16687 132.4687 137.45001 141.35236 145.22681 150.20811 152.97572 155.74333 160.17072 168.17467 172.04912 177.58434 185.58829 192.50433 197.48563 201.38799 206.9232 214.42903 219.41032 226.0215 231.00281 236.53802 244.01695 249.55217 253.97955 259.51477 264.49606 268.37051 272.79791 276.70026 284.20609 288.08054 295.27551 298.04312 301.9176 311.02939 314.90384 320.43906 324.86642 327.63406"
         y="55.880001"
         sodipodi:role="line"
         id="tspan4000">4.AYoutubechanneltoimmortalizethewordsofourdebaters(withtheir</tspan><tspan
         x="12.73 18.544174 22.971552 26.873903 35.175739 37.943348 41.872597 45.801846 48.569458 53.550758 59.085979 65.171135 70.152435 76.514549 80.941933 85.923233 91.45845 95.360802 99.290047 103.71743"
         y="67.834999"
         sodipodi:role="line"
         id="tspan4002">permission,ofcourse)</tspan></text>
<text
       transform="matrix(1,0,0,-1,133.768,231.144)"
       style="font-variant:normal;font-weight:normal;font-size:9.96259975px;font-family:CMBX10;-inkscape-font-specification:CMBX10;writing-mode:lr-tb;fill:#000000;fill-opacity:1;fill-rule:nonzero;stroke:none"
       id="text4008"><tspan
         x="0 11.844535 18.209641 23.778734 32.049683 37.300972 40.483025 45.00206 54.078987 62.035118 67.763611 74.128716 77.310776 87.491554 93.219055 98.947548 109.13829 112.32034 115.5024 121.2299 130.29686 134.75214 144.29631 149.38818 155.11668 161.16299 165.61826 170.33655 173.5186 179.88371 186.24881 190.70409 195.95537"
         y="0"
         sodipodi:role="line"
         id="tspan4006">Whatelsewouldyouliketocontribute?</tspan></text>
<text
       transform="matrix(1,0,0,-1,145.945,213.816)"
       style="font-variant:normal;font-weight:normal;font-size:9.96259975px;font-family:CMR10;-inkscape-font-specification:CMR10;writing-mode:lr-tb;fill:#000000;fill-opacity:1;fill-rule:nonzero;stroke:none"
       id="text4018"><tspan
         x="0 4.9812999 12.73021 23.519707 29.054926 33.482307 37.411556 40.179165 45.160465 54.023193 57.067764 62.049065 69.268959 74.804184 79.785484 83.659935 87.534393 91.961769 95.86412 101.39935 105.82672 114.67949 118.60874 123.86899 128.01741 133.27568"
         y="0"
         sodipodi:role="line"
         id="tspan4010">1.Adesignforpatternedsocks</tspan><tspan
         x="0 4.9812999 12.73021 23.519707 29.054926 34.590149 39.571445 43.445904 48.427204 54.241375 59.501629 64.482925 73.058731 76.933189 85.232033 89.659416 94.640717 102.94255 111.25435 115.68172 123.98356 128.96486 132.86722 137.84851 141.72296 149.4679 153.39714 158.37845 166.68028 174.4252 179.40649 185.77858 189.65303 195.18826 202.93318 206.80763 211.78894 217.32416 221.2265 226.76173 231.74303 240.04486 244.47224 249.72852 253.60297 260.85971 267.77576 275.52069 280.50198 288.81079 292.68524"
         y="18.627001"
         sodipodi:role="line"
         id="tspan4012">2.Aphotobooktocommemoratesomeofthetournamentswegoto</tspan><tspan
         x="0 4.9812999 12.73021 20.20216 24.629539 27.39715 36.249916 43.998825 48.426205 52.853584 57.834885 63.370106 68.351402 77.214134 82.749359 87.176735 92.156044 96.58342 99.351028 104.33233 113.1851 118.1664 127.01917 132.00046 137.53569 146.39841 149.44298 154.42429 161.64418 165.51863 171.05386 178.79878 187.9315 195.54193"
         y="37.252998"
         sodipodi:role="line"
         id="tspan4014">3.HelpKeeghandevelopanappfortheMDU</tspan><tspan
         x="157.188"
         y="74.450996"
         id="tspan4016">1</tspan></text>
</g></svg>